<svg xmlns="http://www.w3.org/2000/svg" viewBox="0 0 520 520" role="img" aria-label="Chess position search placeholder">
<defs><pattern id="grid" width="65" height="65" patternUnits="userSpaceOnUse"><rect width="65" height="65" fill="#e7ddc7"/><rect width="65" height="65" fill="#1d2a33" opacity=".98" x="65"/><rect width="65" height="65" fill="#1d2a33" opacity=".98" y="65"/></pattern><filter id="s"><feDropShadow dx="0" dy="18" stdDeviation="22" flood-color="#000" flood-opacity=".3"/></filter></defs>
<rect x="18" y="18" width="484" height="484" rx="24" fill="#101821" stroke="#334252" filter="url(#s)"/>
<rect x="50" y="50" width="420" height="420" rx="8" fill="url(#grid)"/>
<g opacity=".8" fill="#f6f3ea" font-family="IBM Plex Mono, monospace" font-size="14"><text x="64" y="38">a</text><text x="128" y="38">b</text><text x="192" y="38">c</text><text x="256" y="38">d</text><text x="320" y="38">e</text><text x="384" y="38">f</text><text x="448" y="38">g</text></g>
<g fill="none" stroke="#f5c45e" stroke-width="2" opacity=".72"><path d="M260 28v56M260 436v56M28 260h56M436 260h56"/><circle cx="260" cy="260" r="152" stroke-dasharray="8 10"/><path d="M170 260h180M260 170v180"/></g>
<g fill="#0b1018" opacity=".82"><circle cx="115" cy="115" r="22"/><circle cx="245" cy="115" r="22"/><circle cx="375" cy="115" r="22"/><circle cx="310" cy="375" r="22"/></g>
<g fill="#f6f3ea" opacity=".9"><circle cx="180" cy="375" r="22"/><circle cx="245" cy="375" r="22"/><circle cx="115" cy="245" r="22"/><circle cx="375" cy="245" r="22"/></g>
</svg>
