<svg xmlns="http://www.w3.org/2000/svg" viewBox="0 0 900 420" role="img" aria-label="Chess intelligence data network">
<defs><linearGradient id="a" x1="0" x2="1"><stop stop-color="#f5c45e"/><stop offset="1" stop-color="#7dd3fc"/></linearGradient></defs><rect width="900" height="420" fill="none"/>
<g fill="none" stroke="#314253" stroke-width="1"><path d="M90 210C190 72 360 56 500 160s245 64 320-80"/><path d="M80 310c160-120 330-100 470 0s260 20 310-130"/><path d="M140 90c110 80 210 110 320 80s230-18 320 80"/></g>
<g font-family="IBM Plex Mono, monospace" font-size="12" fill="#9fb0c1"><text x="106" y="204">PGN SOURCE</text><text x="390" y="146">OPENING INDEX</text><text x="615" y="272">PLAYER DOSSIER</text><text x="685" y="97">POSITION HASH</text></g>
<g><circle cx="90" cy="210" r="8" fill="#f5c45e"/><circle cx="400" cy="150" r="7" fill="#7dd3fc"/><circle cx="610" cy="270" r="8" fill="#f5c45e"/><circle cx="770" cy="92" r="7" fill="#7dd3fc"/><circle cx="450" cy="315" r="5" fill="#7dd3fc"/></g>
<path d="M435 190h128l54 54-54 54H435l-54-54 54-54Z" fill="#101821" stroke="url(#a)" stroke-width="2"/><text x="424" y="238" font-family="Inter, Arial" font-weight="800" font-size="21" fill="#f6f3ea">SEARCH</text><text x="414" y="263" font-family="IBM Plex Mono" font-size="12" fill="#9fb0c1">23.8M indexed games</text>
</svg>
